<?xml version="1.0" encoding="UTF-8" standalone="no"?><!DOCTYPE svg PUBLIC "-//W3C//DTD SVG 1.1//EN" "http://www.w3.org/Graphics/SVG/1.1/DTD/svg11.dtd"><svg width="100%" height="100%" viewBox="0 0 2048 2048" version="1.1" xmlns="http://www.w3.org/2000/svg" xmlns:xlink="http://www.w3.org/1999/xlink" xml:space="preserve" style="fill-rule:evenodd;clip-rule:evenodd;stroke-linecap:round;stroke-linejoin:round;stroke-miterlimit:1.5;"><g><path d="M161.364,775l81.818,81.818l204.545,0l40.909,40.909l429.546,0l81.818,-81.818l0,-163.636l-61.364,-61.364l-777.272,0l0,184.091" style="fill:#7b7b7b;"/><clipPath id="_clip1"><path d="M161.364,775l81.818,81.818l204.545,0l40.909,40.909l429.546,0l81.818,-81.818l0,-163.636l-61.364,-61.364l-777.272,0l0,184.091"/></clipPath><g clip-path="url(#_clip1)"><path d="M222.727,795.455l40.909,40.909l204.546,0l20.454,20.454l20.455,0l0,-20.454l20.454,-20.455l0,40.909l20.455,0l0,-20.454l20.455,-20.455l0,40.909l20.454,0l0,-20.454l20.455,-20.455l0,40.909l20.454,0l0,-20.454l20.455,-20.455l0,40.909l40.909,0l81.818,-81.818" style="fill:none;stroke:#797979;stroke-width:4px;"/></g><path d="M100,149.091l49.091,-49.091l810,0l0,662.727l-49.091,49.091l-810,0l0,-662.727Z" style="fill:#808080;"/><clipPath id="_clip2"><path d="M100,149.091l49.091,-49.091l810,0l0,662.727l-49.091,49.091l-810,0l0,-662.727Z"/></clipPath><g clip-path="url(#_clip2)"><g><path d="M192.045,153.693c0,-7.056 -5.728,-12.784 -12.784,-12.784l-25.568,0c-7.056,0 -12.784,5.728 -12.784,12.784l0,485.796c0,7.055 5.728,12.784 12.784,12.784l25.568,0c7.056,0 12.784,-5.729 12.784,-12.784l0,-485.796Z" style="fill:#737373;stroke:#838383;stroke-width:8px;"/><path d="M263.636,153.693c0,-7.056 -5.728,-12.784 -12.784,-12.784l-25.568,0c-7.056,0 -12.784,5.728 -12.784,12.784l0,485.796c0,7.055 5.728,12.784 12.784,12.784l25.568,0c7.056,0 12.784,-5.729 12.784,-12.784l0,-485.796Z" style="fill:#737373;stroke:#838383;stroke-width:8px;"/><path d="M335.227,153.693c0,-7.056 -5.728,-12.784 -12.784,-12.784l-25.568,0c-7.056,0 -12.784,5.728 -12.784,12.784l0,485.796c0,7.055 5.728,12.784 12.784,12.784l25.568,0c7.056,0 12.784,-5.729 12.784,-12.784l0,-485.796Z" style="fill:#737373;stroke:#838383;stroke-width:8px;"/><path d="M406.818,153.693c0,-7.056 -5.728,-12.784 -12.784,-12.784l-25.568,0c-7.056,0 -12.784,5.728 -12.784,12.784l0,485.796c0,7.055 5.728,12.784 12.784,12.784l25.568,0c7.056,0 12.784,-5.729 12.784,-12.784l0,-485.796Z" style="fill:#737373;stroke:#838383;stroke-width:8px;"/><path d="M478.409,153.693c0,-7.056 -5.728,-12.784 -12.784,-12.784l-25.568,0c-7.056,0 -12.784,5.728 -12.784,12.784l0,485.796c0,7.055 5.728,12.784 12.784,12.784l25.568,0c7.056,0 12.784,-5.729 12.784,-12.784l0,-485.796Z" style="fill:#737373;stroke:#838383;stroke-width:8px;"/><path d="M550,153.693c0,-7.056 -5.728,-12.784 -12.784,-12.784l-25.568,0c-7.056,0 -12.784,5.728 -12.784,12.784l0,485.796c0,7.055 5.728,12.784 12.784,12.784l25.568,0c7.056,0 12.784,-5.729 12.784,-12.784l0,-485.796Z" style="fill:#737373;stroke:#838383;stroke-width:8px;"/><path d="M621.591,153.693c0,-7.056 -5.728,-12.784 -12.784,-12.784l-25.568,0c-7.056,0 -12.784,5.728 -12.784,12.784l0,485.796c0,7.055 5.728,12.784 12.784,12.784l25.568,0c7.056,0 12.784,-5.729 12.784,-12.784l0,-485.796Z" style="fill:#737373;stroke:#838383;stroke-width:8px;"/><path d="M693.182,153.693c0,-7.056 -5.729,-12.784 -12.784,-12.784l-25.568,0c-7.056,0 -12.785,5.728 -12.785,12.784l0,485.796c0,7.055 5.729,12.784 12.785,12.784l25.568,0c7.055,0 12.784,-5.729 12.784,-12.784l0,-485.796Z" style="fill:#737373;stroke:#838383;stroke-width:8px;"/><path d="M764.773,153.693c0,-7.056 -5.729,-12.784 -12.784,-12.784l-25.569,0c-7.055,0 -12.784,5.728 -12.784,12.784l0,485.796c0,7.055 5.729,12.784 12.784,12.784l25.569,0c7.055,0 12.784,-5.729 12.784,-12.784l0,-485.796Z" style="fill:#737373;stroke:#838383;stroke-width:8px;"/></g><path d="M100,836.364l81.818,0l122.727,-122.728l409.091,0l61.364,61.364l81.818,0l117.614,-117.614" style="fill:none;stroke:#7e7e7e;stroke-width:8px;"/><path d="M734.091,79.545l20.454,0l81.819,81.819l61.363,0l40.909,40.909l0,327.272l61.364,61.364" style="fill:none;stroke:#7e7e7e;stroke-width:8px;"/><path d="M140.909,120.455l613.636,0l40.91,40.909l0,184.091l40.909,40.909l0,225l-61.364,61.363l-634.091,0l-20.454,-20.454l0,-511.364l20.454,-20.454Z" style="fill:none;stroke:#7e7e7e;stroke-width:4px;"/><path d="M815.909,365.909l0,102.273l-20.454,20.454l0,102.273l20.454,20.455l0,20.454" style="fill:none;stroke:#7e7e7e;stroke-width:4px;"/><path d="M161.364,672.727l51.136,51.137l61.364,0l20.454,-20.455l71.591,0l30.682,-30.682" style="fill:none;stroke:#7e7e7e;stroke-width:4px;"/><path d="M713.636,672.727l40.909,40.909l102.273,0l20.455,-20.454l0,-102.273l-40.909,-40.909" style="fill:none;stroke:#7e7e7e;stroke-width:4px;"/></g><g><g><circle cx="325" cy="754.545" r="20.455" style="fill:url(#_Radial3);"/><circle cx="325" cy="754.545" r="15.341" style="fill:#838383;"/></g><g><circle cx="406.818" cy="754.545" r="20.455" style="fill:url(#_Radial4);"/><circle cx="406.818" cy="754.545" r="15.341" style="fill:#838383;"/></g><g><circle cx="488.636" cy="754.545" r="20.455" style="fill:url(#_Radial5);"/><circle cx="488.636" cy="754.545" r="15.341" style="fill:#838383;"/></g><g><circle cx="570.455" cy="754.545" r="20.455" style="fill:url(#_Radial6);"/><circle cx="570.455" cy="754.545" r="15.341" style="fill:#838383;"/></g><g><circle cx="652.273" cy="754.545" r="20.455" style="fill:url(#_Radial7);"/><circle cx="652.273" cy="754.545" r="15.341" style="fill:#838383;"/></g><g><circle cx="365.909" cy="754.545" r="20.455" style="fill:url(#_Radial8);"/><circle cx="365.909" cy="754.545" r="15.341" style="fill:#838383;"/></g><g><circle cx="447.727" cy="754.545" r="20.455" style="fill:url(#_Radial9);"/><circle cx="447.727" cy="754.545" r="15.341" style="fill:#838383;"/></g><g><circle cx="529.545" cy="754.545" r="20.455" style="fill:url(#_Radial10);"/><circle cx="529.545" cy="754.545" r="15.341" style="fill:#838383;"/></g><g><circle cx="611.364" cy="754.545" r="20.455" style="fill:url(#_Radial11);"/><circle cx="611.364" cy="754.545" r="15.341" style="fill:#838383;"/></g><g><circle cx="693.182" cy="754.545" r="20.455" style="fill:url(#_Radial12);"/><circle cx="693.182" cy="754.545" r="15.341" style="fill:#838383;"/></g></g></g><defs><radialGradient id="_Radial3" cx="0" cy="0" r="1" gradientUnits="userSpaceOnUse" gradientTransform="matrix(20.4545,0,0,20.4545,325,754.545)"><stop offset="0%" style="stop-color:#737373;stop-opacity:1"/><stop offset="55%" style="stop-color:#767676;stop-opacity:1"/><stop offset="100%" style="stop-color:#808080;stop-opacity:1"/></radialGradient><radialGradient id="_Radial4" cx="0" cy="0" r="1" gradientUnits="userSpaceOnUse" gradientTransform="matrix(20.4545,0,0,20.4545,406.818,754.545)"><stop offset="0%" style="stop-color:#737373;stop-opacity:1"/><stop offset="55%" style="stop-color:#767676;stop-opacity:1"/><stop offset="100%" style="stop-color:#808080;stop-opacity:1"/></radialGradient><radialGradient id="_Radial5" cx="0" cy="0" r="1" gradientUnits="userSpaceOnUse" gradientTransform="matrix(20.4545,0,0,20.4545,488.636,754.545)"><stop offset="0%" style="stop-color:#737373;stop-opacity:1"/><stop offset="55%" style="stop-color:#767676;stop-opacity:1"/><stop offset="100%" style="stop-color:#808080;stop-opacity:1"/></radialGradient><radialGradient id="_Radial6" cx="0" cy="0" r="1" gradientUnits="userSpaceOnUse" gradientTransform="matrix(20.4545,0,0,20.4545,570.455,754.545)"><stop offset="0%" style="stop-color:#737373;stop-opacity:1"/><stop offset="55%" style="stop-color:#767676;stop-opacity:1"/><stop offset="100%" style="stop-color:#808080;stop-opacity:1"/></radialGradient><radialGradient id="_Radial7" cx="0" cy="0" r="1" gradientUnits="userSpaceOnUse" gradientTransform="matrix(20.4545,0,0,20.4545,652.273,754.545)"><stop offset="0%" style="stop-color:#737373;stop-opacity:1"/><stop offset="55%" style="stop-color:#767676;stop-opacity:1"/><stop offset="100%" style="stop-color:#808080;stop-opacity:1"/></radialGradient><radialGradient id="_Radial8" cx="0" cy="0" r="1" gradientUnits="userSpaceOnUse" gradientTransform="matrix(20.4545,0,0,20.4545,365.909,754.545)"><stop offset="0%" style="stop-color:#737373;stop-opacity:1"/><stop offset="55%" style="stop-color:#767676;stop-opacity:1"/><stop offset="100%" style="stop-color:#808080;stop-opacity:1"/></radialGradient><radialGradient id="_Radial9" cx="0" cy="0" r="1" gradientUnits="userSpaceOnUse" gradientTransform="matrix(20.4545,0,0,20.4545,447.727,754.545)"><stop offset="0%" style="stop-color:#737373;stop-opacity:1"/><stop offset="55%" style="stop-color:#767676;stop-opacity:1"/><stop offset="100%" style="stop-color:#808080;stop-opacity:1"/></radialGradient><radialGradient id="_Radial10" cx="0" cy="0" r="1" gradientUnits="userSpaceOnUse" gradientTransform="matrix(20.4545,0,0,20.4545,529.545,754.545)"><stop offset="0%" style="stop-color:#737373;stop-opacity:1"/><stop offset="55%" style="stop-color:#767676;stop-opacity:1"/><stop offset="100%" style="stop-color:#808080;stop-opacity:1"/></radialGradient><radialGradient id="_Radial11" cx="0" cy="0" r="1" gradientUnits="userSpaceOnUse" gradientTransform="matrix(20.4545,0,0,20.4545,611.364,754.545)"><stop offset="0%" style="stop-color:#737373;stop-opacity:1"/><stop offset="55%" style="stop-color:#767676;stop-opacity:1"/><stop offset="100%" style="stop-color:#808080;stop-opacity:1"/></radialGradient><radialGradient id="_Radial12" cx="0" cy="0" r="1" gradientUnits="userSpaceOnUse" gradientTransform="matrix(20.4545,0,0,20.4545,693.182,754.545)"><stop offset="0%" style="stop-color:#737373;stop-opacity:1"/><stop offset="55%" style="stop-color:#767676;stop-opacity:1"/><stop offset="100%" style="stop-color:#808080;stop-opacity:1"/></radialGradient></defs></svg>